# xmcd
#
# Track frame offsets:
#	187
#	21477
#	41730
#	61530
#	81702
#	101800
#	119577
#	143877
#	175227
#	208530
#
# Disc length: 3295 seconds
#
# Revision: 4
# Processed by: cddbd v1.4PL0 Copyright (c) Steve Scherf et al.
# Submitted via: audiograbber 1.82.01
#
DISCID=930cdd0a
DTITLE=Dave McKenna - My Friend the Piano
DYEAR=1986
DGENRE=Jazz - Swing
TTITLE0=Margie
TTITLE1=Only Trust Your Heart
TTITLE2=Mean to Me
TTITLE3=Slowly
TTITLE4=You're Driving Me Crazy
TTITLE5=Key Largo
TTITLE6=Soon Medley
TTITLE7=Guess I'll Go Back Home This Summer - Indian Summer
TTITLE8=Baby, Baby, All the Time
TTITLE9=It's Always You - Always - This is Always
EXTD=
EXTT0=
EXTT1=
EXTT2=
EXTT3=
EXTT4=
EXTT5=
EXTT6=
EXTT7=
EXTT8=
EXTT9=
PLAYORDER=
